<?xml version="1.0" encoding="iso-8859-1"?>
<!-- Generator: Adobe Illustrator 18.0.0, SVG Export Plug-In . SVG Version: 6.00 Build 0)  -->
<!DOCTYPE svg PUBLIC "-//W3C//DTD SVG 1.1//EN" "http://www.w3.org/Graphics/SVG/1.1/DTD/svg11.dtd">
<svg version="1.1" id="Capa_1" xmlns="http://www.w3.org/2000/svg" xmlns:xlink="http://www.w3.org/1999/xlink" x="0px" y="0px"
	 viewBox="0 0 74.321 74.321" style="enable-background:new 0 0 74.321 74.321;" xml:space="preserve">
<g>
	<path d="M68.412,9.371c-0.029-0.14-0.042-0.284-0.075-0.423l-0.068,0.017c0-0.001,0-0.001,0-0.001
		c-1.109-4.563-4.093-7.397-7.788-7.397c-1.83,0-2.719-0.04-3.661-0.083c-0.922-0.042-1.876-0.086-3.752-0.086
		c-1.851,0-2.776-0.005-3.701-0.01c-0.928-0.005-1.856-0.01-3.711-0.01c-1.768,0-2.627-0.146-3.537-0.3
		c-0.951-0.161-1.935-0.327-3.871-0.327c-1.865,0-2.797,0.023-3.729,0.047c-0.92,0.022-1.84,0.046-3.68,0.046
		c-1.88,0-2.836,0.055-3.761,0.107c-0.938,0.053-1.823,0.104-3.647,0.104c-1.928,0-2.908,0.152-3.856,0.299
		c-0.913,0.142-1.775,0.275-3.549,0.275c-1.756,0-2.609-0.165-3.513-0.339c-0.957-0.185-1.945-0.375-3.892-0.375
		c-2.277,0-4.274,1.534-6.107,4.689L2.392,5.812C1.327,7.645,0,9.927,0,12.676c0,1.854,0.091,2.797,0.178,3.708
		c0.087,0.904,0.169,1.759,0.169,3.518c0,1.843,0.068,2.779,0.133,3.685c0.066,0.91,0.128,1.771,0.128,3.541
		c0,1.755-0.085,2.608-0.175,3.511c-0.091,0.912-0.185,1.855-0.185,3.71c0,1.85,0.085,2.791,0.166,3.7
		c0.081,0.906,0.158,1.762,0.158,3.523c0,1.76-0.077,2.615-0.159,3.521c-0.081,0.91-0.166,1.851-0.166,3.701
		c0,1.788-0.03,2.682-0.059,3.576c-0.03,0.91-0.061,1.821-0.061,3.643c0,2.724,1.157,5.017,2.241,6.952
		c1.412,2.522,3.309,3.914,5.559,4.132c0.068,0.053,0.157,0.104,0.255,0.147L8.14,67.518c0.147,0.022,0.302,0.025,0.448,0.026
		c1.17,3.559,3.675,6.025,6.58,6.025h51.862c4.028,0,7.292-4.714,7.292-10.534V19.698C74.321,14.56,71.777,10.299,68.412,9.371z
		 M4.113,61.988c-1.005-1.795-1.986-3.733-1.986-5.976c0-1.788,0.03-2.682,0.06-3.576c0.03-0.91,0.061-1.821,0.061-3.642
		c0-1.761,0.077-2.616,0.159-3.522c0.082-0.91,0.166-1.851,0.166-3.7c0-1.851-0.084-2.792-0.166-3.701
		c-0.081-0.906-0.158-1.762-0.158-3.522c0-1.755,0.086-2.608,0.175-3.511c0.091-0.912,0.185-1.854,0.185-3.71
		c0-1.843-0.068-2.779-0.133-3.686c-0.066-0.91-0.128-1.77-0.128-3.541c0-1.854-0.091-2.798-0.178-3.709
		C2.082,15.288,2,14.433,2,12.676c0-2.21,1.127-4.148,2.121-5.857l0.122-0.21C5.706,4.089,7.097,2.915,8.62,2.915
		c1.756,0,2.609,0.165,3.513,0.339c0.957,0.185,1.945,0.375,3.892,0.375c1.928,0,2.908-0.152,3.856-0.299
		c0.913-0.142,1.775-0.275,3.549-0.275c1.88,0,2.836-0.055,3.76-0.107c0.938-0.053,1.824-0.104,3.647-0.104
		c1.865,0,2.798-0.023,3.73-0.047c0.92-0.022,1.84-0.046,3.68-0.046c1.768,0,2.627,0.145,3.537,0.3
		c0.951,0.16,1.935,0.327,3.871,0.327c1.85,0,2.775,0.005,3.701,0.01c0.928,0.005,1.856,0.01,3.712,0.01
		c1.831,0,2.72,0.041,3.661,0.083c0.922,0.042,1.875,0.086,3.751,0.086c2.725,0,4.964,2.249,5.844,5.867
		c0.238,0.986,0.358,2.077,0.358,3.242c0,1.787-0.031,2.681-0.062,3.575c-0.031,0.91-0.063,1.821-0.063,3.644
		c0,1.829,0.045,2.759,0.088,3.658c0.044,0.916,0.086,1.782,0.086,3.563c0,1.794-0.021,2.691-0.043,3.587
		c-0.022,0.909-0.044,1.818-0.044,3.636c0,1.355,0.057,2.224,0.128,2.95v15.679c-0.117,0.747-0.212,1.639-0.212,3.045
		c0,2.449-0.498,4.6-1.439,6.219c-0.492,0.847-1.033,1.559-1.601,2.122c-0.902,0.758-1.938,1.193-3.042,1.193H34.354
		c-0.85-0.15-1.816-0.286-3.502-0.286c-1.895,0-2.858,0.083-3.79,0.163c-0.553,0.048-1.092,0.094-1.814,0.123h-3.641
		c-0.708-0.028-1.241-0.072-1.787-0.117c-0.931-0.076-1.895-0.156-3.789-0.156c-1.862,0-2.793,0.017-3.724,0.033
		c-0.865,0.016-1.73,0.031-3.357,0.033c-0.132-0.088-0.316-0.174-0.572-0.211C6.632,65.021,5.237,63.994,4.113,61.988z"/>
	<path d="M26.197,31.067c1.38,0.37,2.746,0.468,4.13,0.497c0.011,0.101,0.031,0.209,0.081,0.318c0.177,0.38,0.335,0.766,0.481,1.159
		c-0.041,6.124-0.174,12.243-0.189,18.367c-0.003,1.417,0.234,2.256,0.694,2.768c-0.175,0.373-0.129,0.838,0.336,1.057
		c0.521,0.245,1.069,0.372,1.628,0.436c0.462,0.255,1.086,0.287,1.917,0.043c0.428-0.013,0.852-0.033,1.268-0.037
		c0.676-0.004,0.903-0.724,0.707-1.237c0.761-1.325,0.403-3.48,0.26-4.861c-0.284-2.729-0.332-5.474-0.364-8.218
		c0.028-0.614,0.042-1.232,0.057-1.847c0.188-2.457,0.266-4.867,0.25-7.525c1.289,0.123,2.582,0.204,3.899,0.099
		c0.299-0.025,0.501-0.19,0.626-0.402c0.472-0.053,0.889-0.453,0.659-1.051c-1.013-2.639-2.537-5.048-3.76-7.584
		c-1.226-2.532-2.513-5.052-4.538-6.955c-0.511-0.479-1.162-0.125-1.35,0.39c-0.132,0.069-0.256,0.173-0.344,0.358
		c-2.136,4.539-5.462,8.306-7.037,13.16C25.464,30.448,25.789,30.96,26.197,31.067z M34.558,31.704
		c0.198,0.013,0.397,0.031,0.594,0.05c-0.249,0.518-0.466,1.043-0.666,1.578C34.52,32.789,34.542,32.246,34.558,31.704z
		 M34.576,42.264c0.048,0.004,0.095,0.008,0.141,0c-0.074,2.119-0.029,4.249,0.018,6.37c-0.087,0.635-0.2,1.248-0.346,1.837
		C34.494,47.799,34.445,45.006,34.576,42.264z"/>
</g>
<g>
</g>
<g>
</g>
<g>
</g>
<g>
</g>
<g>
</g>
<g>
</g>
<g>
</g>
<g>
</g>
<g>
</g>
<g>
</g>
<g>
</g>
<g>
</g>
<g>
</g>
<g>
</g>
<g>
</g>
</svg>
