<svg width="166" height="92" viewBox="0 0 166 92" fill="none" xmlns="http://www.w3.org/2000/svg">
<path fill-rule="evenodd" clip-rule="evenodd" d="M115.563 35.0817H137.227C140.664 35.0797 144.067 35.7549 147.242 37.0686C150.417 38.3824 153.302 40.3091 155.732 42.7385C158.162 45.1679 160.09 48.0524 161.404 51.2271C162.719 54.4018 163.395 57.8046 163.394 61.2407V89.4641H2V61.2407C1.99898 57.8059 2.67464 54.4044 3.9884 51.2307C5.30217 48.057 7.22826 45.1732 9.65673 42.744C12.0852 40.3148 14.9684 38.3878 18.1417 37.0731C21.315 35.7584 24.7163 35.0817 28.1511 35.0817H50.4152C50.3484 30.7617 51.1416 26.4714 52.7486 22.4608C54.3556 18.4502 56.7443 14.7993 59.7757 11.7207C62.8071 8.64203 66.4206 6.19713 70.4059 4.52829C74.3912 2.85946 78.6686 2 82.9892 2C87.3098 2 91.5872 2.85946 95.5725 4.52829C99.5578 6.19713 103.171 8.64203 106.203 11.7207C109.234 14.7993 111.623 18.4502 113.23 22.4608C114.837 26.4714 115.63 30.7617 115.563 35.0817ZM93.8212 38.7896C93.8212 44.9377 88.8373 49.9216 82.6892 49.9216C76.5412 49.9216 71.5573 44.9377 71.5573 38.7896C71.5573 32.6416 76.5412 27.6577 82.6892 27.6577C88.8373 27.6577 93.8212 32.6416 93.8212 38.7896Z" fill="#77C095"/>
<path d="M137.227 35.0817L137.227 37.0817L137.229 37.0817L137.227 35.0817ZM115.563 35.0817L113.564 35.0508C113.555 35.5865 113.762 36.1032 114.138 36.485C114.514 36.8668 115.028 37.0817 115.563 37.0817V35.0817ZM147.242 37.0686L146.477 38.9167L146.477 38.9167L147.242 37.0686ZM161.404 51.2271L163.252 50.4619L163.252 50.4619L161.404 51.2271ZM163.394 61.2407L161.394 61.2401V61.2407H163.394ZM163.394 89.4641V91.4641C164.499 91.4641 165.394 90.5686 165.394 89.4641H163.394ZM2 89.4641H1.15776e-06C1.15776e-06 90.5686 0.895432 91.4641 2 91.4641L2 89.4641ZM2 61.2407L4 61.2407L4 61.2401L2 61.2407ZM3.9884 51.2307L5.83633 51.9957L5.83633 51.9957L3.9884 51.2307ZM9.65673 42.744L8.24231 41.33L8.24231 41.33L9.65673 42.744ZM18.1417 37.0731L18.9072 38.9208L18.9072 38.9208L18.1417 37.0731ZM50.4152 35.0817V37.0817C50.951 37.0817 51.4644 36.8668 51.8403 36.485C52.2162 36.1032 52.4232 35.5865 52.4149 35.0508L50.4152 35.0817ZM52.7486 22.4608L54.6051 23.2047L54.6051 23.2047L52.7486 22.4608ZM59.7757 11.7207L61.2008 13.1239L61.2008 13.1239L59.7757 11.7207ZM70.4059 4.52829L69.6334 2.68351L69.6334 2.68351L70.4059 4.52829ZM95.5725 4.52829L94.8 6.37308L94.8 6.37308L95.5725 4.52829ZM113.23 22.4608L111.373 23.2047L111.373 23.2047L113.23 22.4608ZM137.227 33.0817H115.563V37.0817H137.227V33.0817ZM148.006 35.2206C144.588 33.8063 140.925 33.0795 137.226 33.0817L137.229 37.0817C140.402 37.0799 143.545 37.7034 146.477 38.9167L148.006 35.2206ZM157.146 41.3241C154.53 38.7089 151.424 36.6349 148.006 35.2206L146.477 38.9167C149.409 40.13 152.074 41.9093 154.318 44.1529L157.146 41.3241ZM163.252 50.4619C161.837 47.0443 159.762 43.9392 157.146 41.3241L154.318 44.1529C156.562 46.3965 158.342 49.0604 159.557 51.9923L163.252 50.4619ZM165.394 61.2413C165.395 57.5423 164.667 53.8794 163.252 50.4619L159.557 51.9923C160.771 54.9243 161.395 58.0668 161.394 61.2401L165.394 61.2413ZM165.394 89.4641V61.2407H161.394V89.4641H165.394ZM2 91.4641H163.394V87.4641H2V91.4641ZM1.15776e-06 61.2407V89.4641H4V61.2407H1.15776e-06ZM2.14047 50.4658C0.726237 53.8822 -0.00109896 57.5438 1.24629e-06 61.2413L4 61.2401C3.99906 58.068 4.62305 54.9267 5.83633 51.9957L2.14047 50.4658ZM8.24231 41.33C5.62811 43.945 3.55471 47.0493 2.14047 50.4658L5.83633 51.9957C7.04963 49.0647 8.82842 46.4014 11.0712 44.158L8.24231 41.33ZM17.3762 35.2254C13.9602 36.6407 10.8565 38.715 8.24231 41.33L11.0712 44.158C13.3139 41.9146 15.9766 40.135 18.9072 38.9208L17.3762 35.2254ZM28.1512 33.0817C24.4536 33.0817 20.7922 33.8102 17.3762 35.2254L18.9072 38.9208C21.8379 37.7067 24.979 37.0817 28.1512 37.0817V33.0817ZM50.4152 33.0817H28.1512V37.0817H50.4152V33.0817ZM50.8921 21.7169C49.1864 25.9738 48.3445 30.5274 48.4154 35.1127L52.4149 35.0508C52.3522 30.996 53.0967 26.9691 54.6051 23.2047L50.8921 21.7169ZM58.3506 10.3174C55.1331 13.5851 52.5977 17.4601 50.8921 21.7169L54.6051 23.2047C56.1134 19.4403 58.3555 16.0136 61.2008 13.1239L58.3506 10.3174ZM69.6334 2.68351C65.4034 4.4548 61.5681 7.04979 58.3506 10.3174L61.2008 13.1239C64.0461 10.2343 67.4378 7.93947 71.1784 6.37308L69.6334 2.68351ZM82.9892 0C78.4034 0 73.8633 0.91222 69.6334 2.68351L71.1784 6.37308C74.919 4.80669 78.9339 4 82.9892 4V0ZM96.345 2.68351C92.1151 0.91222 87.5751 0 82.9892 0V4C87.0445 4 91.0594 4.80669 94.8 6.37308L96.345 2.68351ZM107.628 10.3174C104.41 7.04979 100.575 4.4548 96.345 2.68351L94.8 6.37308C98.5407 7.93947 101.932 10.2343 104.778 13.1239L107.628 10.3174ZM115.086 21.717C113.381 17.4601 110.845 13.5851 107.628 10.3174L104.778 13.1239C107.623 16.0136 109.865 19.4403 111.373 23.2047L115.086 21.717ZM117.563 35.1127C117.634 30.5274 116.792 25.9738 115.086 21.7169L111.373 23.2047C112.882 26.9691 113.626 30.996 113.564 35.0508L117.563 35.1127ZM82.6892 51.9216C89.9418 51.9216 95.8212 46.0422 95.8212 38.7896H91.8212C91.8212 43.8331 87.7327 47.9216 82.6892 47.9216V51.9216ZM69.5573 38.7896C69.5573 46.0422 75.4366 51.9216 82.6892 51.9216V47.9216C77.6458 47.9216 73.5573 43.8331 73.5573 38.7896H69.5573ZM82.6892 25.6577C75.4366 25.6577 69.5573 31.537 69.5573 38.7896H73.5573C73.5573 33.7462 77.6458 29.6577 82.6892 29.6577V25.6577ZM95.8212 38.7896C95.8212 31.537 89.9418 25.6577 82.6892 25.6577V29.6577C87.7327 29.6577 91.8212 33.7462 91.8212 38.7896H95.8212Z" fill="black"/>
</svg>
